<svg width="30" height="27" viewBox="0 0 30 27" fill="none" xmlns="http://www.w3.org/2000/svg">
<path d="M10.2354 1.96698C12.8494 -0.635503 17.0631 -0.655319 19.7022 1.90643L19.7647 1.96795L24.6407 6.8283V3.03045C24.6409 2.32055 25.2169 1.7453 25.9268 1.7453C26.6367 1.74536 27.2118 2.32059 27.212 3.03045V9.38885L29.6221 11.7922C30.1248 12.2936 30.1254 13.1077 29.6241 13.6105C29.1228 14.1129 28.3093 14.1138 27.8067 13.6125L27.2071 13.0148L27.2002 19.8556V19.8576C27.1896 23.5712 24.1736 26.5752 20.46 26.5705H9.54496L9.19828 26.5617C5.64304 26.3858 2.81165 23.4517 2.80473 19.8517V13.0021L2.1934 13.6125C1.69056 14.1139 0.876368 14.1132 0.375041 13.6105C-0.12625 13.1076 -0.124749 12.2936 0.377971 11.7922L3.18266 8.99627L10.2354 1.96795V1.96698ZM17.1426 22.2336C17.1426 21.0501 16.1835 20.0911 15 20.091C13.8165 20.091 12.8575 21.0501 12.8575 22.2336V23.9992H17.1426V22.2336ZM19.7139 23.9992H20.462C22.7574 24.0028 24.6223 22.1463 24.6289 19.8508L24.6387 10.4572L17.9502 3.78924L17.9112 3.75116C16.277 2.16519 13.6682 2.17802 12.0498 3.78924L5.37602 10.4406V19.9006C5.40916 22.1728 7.26364 24.0027 9.54301 23.9992H10.2852V22.2336C10.2852 19.63 12.3964 17.5197 15 17.5197C17.6036 17.5198 19.7139 19.6301 19.7139 22.2336V23.9992Z" fill="black"/>
</svg>
